<svg width="60" height="60" viewBox="0 0 60 60" fill="none" xmlns="http://www.w3.org/2000/svg">
<path d="M30.0003 25.6667C34.1885 25.6667 37.5837 22.2715 37.5837 18.0833C37.5837 13.8952 34.1885 10.5 30.0003 10.5C25.8122 10.5 22.417 13.8952 22.417 18.0833C22.417 22.2715 25.8122 25.6667 30.0003 25.6667Z" stroke="#C6C6C6" stroke-width="3" stroke-linecap="round" stroke-linejoin="round"/>
<path d="M10.5 48.1997V48.1997C10.5 48.9176 11.082 49.4997 11.8 49.4997H48.2C48.918 49.4997 49.5 48.9176 49.5 48.1997V48.1997C49.5 43.3459 49.5 40.919 48.5554 39.0651C47.7245 37.4344 46.3986 36.1085 44.7679 35.2776C42.914 34.333 40.4871 34.333 35.6333 34.333H24.3667C19.5129 34.333 17.086 34.333 15.2321 35.2776C13.6013 36.1085 12.2755 37.4344 11.4446 39.0651C10.5 40.919 10.5 43.3459 10.5 48.1997Z" stroke="#C6C6C6" stroke-width="3" stroke-linecap="round" stroke-linejoin="round"/>
</svg>
