<svg width="60" height="60" viewBox="0 0 60 60" fill="none" xmlns="http://www.w3.org/2000/svg">
<path d="M30 19.5031C30.981 9.83439 35.1487 5 42.5032 5C43.1776 7.03482 43.3518 9.0042 43.0259 10.9081C42.871 11.8126 42.3905 13.1024 41.5845 14.7774" fill="#25A0C2"/>
<path d="M30 19.5031C30.981 9.83439 35.1487 5 42.5032 5C43.1776 7.03482 43.3518 9.0042 43.0259 10.9081C42.871 11.8126 42.3905 13.1024 41.5845 14.7774" stroke="white" stroke-width="2" stroke-linecap="round"/>
<path fill-rule="evenodd" clip-rule="evenodd" d="M30 51.2749C33.0389 51.2749 34.2889 52.9124 35.9177 53.2764C37.5466 53.6405 38.914 53.7415 40.3144 53.1245C43.0875 51.9025 44.778 50.4469 46.8293 48.2729C50.6308 44.2437 52.5 38.704 52.5 31.2854C52.5 23.8666 50.4995 20.0327 47.4167 17.5249C44.334 15.0171 42.5462 14.5366 38.8186 15.0171C35.0909 15.4975 33.0611 19.5027 30.0104 19.5027C26.9598 19.5027 23.2416 15.5535 20.0069 15.0171C16.7721 14.4806 15 15.0171 12.1996 17.5249C9.39918 20.0327 7.5 23.9379 7.5 31.2854C7.5 38.6329 9.43944 44.0809 13.2409 48.1099C15.2921 50.284 16.9125 51.9025 19.6856 53.1245C21.086 53.7415 22.5334 53.6405 24.1055 53.2764C25.6778 52.9124 26.9277 51.2749 30 51.2749Z" fill="#25A0C2" stroke="white" stroke-width="2"/>
<path d="M17.7857 32.5C17.4399 34.1821 17.4399 35.9141 17.7857 37.6958C18.1313 39.4774 18.8676 40.8522 19.9942 41.8204" stroke="white" stroke-width="2" stroke-linecap="round"/>
</svg>
